<?xml version="1.0" standalone="no"?>
<!DOCTYPE svg PUBLIC "-//W3C//DTD SVG 20010904//EN"
 "http://www.w3.org/TR/2001/REC-SVG-20010904/DTD/svg10.dtd">
<svg version="1.0" xmlns="http://www.w3.org/2000/svg"
 width="700.000000pt" height="700.000000pt" viewBox="0 0 700.000000 700.000000"
 preserveAspectRatio="xMidYMid meet">
<metadata>
Created by potrace 1.11, written by Peter Selinger 2001-2013
</metadata>
<g transform="translate(0.000000,700.000000) scale(0.100000,-0.100000)"
fill="#000000" stroke="none">
<path d="M3560 6983 c-29 -6 -87 -14 -129 -18 -41 -4 -88 -13 -104 -22 -18 -9
-45 -13 -68 -10 -22 2 -42 1 -45 -4 -3 -5 -18 -9 -34 -9 -15 0 -90 -16 -166
-34 -77 -19 -193 -47 -259 -61 -156 -35 -307 -86 -414 -140 -47 -23 -117 -57
-156 -73 -88 -38 -156 -74 -220 -116 -56 -37 -136 -88 -207 -132 -93 -58 -236
-175 -284 -231 -26 -32 -116 -128 -199 -213 -83 -85 -175 -184 -205 -220 -30
-36 -57 -67 -60 -70 -18 -16 -181 -213 -210 -253 -19 -26 -54 -71 -77 -100
-23 -29 -47 -64 -53 -77 -21 -48 -89 -147 -164 -238 -34 -42 -50 -76 -76 -160
-30 -96 -63 -177 -193 -467 -42 -96 -104 -268 -142 -400 -13 -44 -30 -99 -38
-121 -33 -85 -44 -198 -46 -469 -1 -147 -4 -308 -6 -358 -1 -50 1 -102 5 -116
5 -14 11 -89 14 -166 3 -77 8 -151 10 -165 8 -47 16 -145 21 -260 7 -148 12
-193 30 -233 7 -18 21 -59 30 -92 9 -33 25 -78 35 -100 10 -22 18 -56 18 -75
0 -24 17 -67 50 -130 28 -52 60 -128 72 -168 14 -46 35 -88 59 -116 20 -25 55
-82 78 -128 74 -145 123 -209 267 -352 140 -138 192 -180 238 -191 14 -4 38
-18 54 -32 65 -57 97 -75 274 -159 102 -48 199 -97 215 -110 48 -35 222 -113
325 -146 52 -16 118 -40 145 -53 28 -13 77 -26 110 -29 33 -3 114 -18 180 -32
66 -14 152 -29 190 -34 39 -5 147 -23 240 -40 95 -18 197 -31 230 -30 130 4
213 3 290 -4 176 -15 275 -20 385 -21 111 0 133 2 248 24 29 6 99 13 154 16
56 3 127 12 158 20 32 8 73 15 91 15 19 0 97 14 174 30 176 38 180 39 207 49
13 5 28 9 33 10 6 1 28 8 50 15 58 21 272 84 330 97 28 7 67 20 87 30 20 10
60 22 89 25 66 8 97 21 218 91 53 31 161 89 241 130 87 44 185 105 245 151 55
41 102 78 105 81 6 7 140 114 200 160 25 19 72 65 105 102 33 37 69 70 80 73
11 3 36 33 57 69 20 34 51 81 70 103 85 102 138 182 138 209 0 11 7 33 15 48
8 16 17 49 19 73 2 25 12 56 21 70 9 14 28 56 41 92 14 37 36 94 49 127 13 34
33 123 44 198 12 76 28 152 37 169 28 54 64 203 57 240 -3 19 0 59 6 89 6 30
11 89 12 131 1 43 10 101 20 130 23 69 32 174 19 218 -14 48 -11 292 4 337 4
12 2 69 -4 125 -7 57 -11 148 -10 203 6 234 2 336 -12 395 -25 102 -29 148
-30 292 0 104 -4 164 -12 180 -7 13 -13 37 -14 54 -1 39 -27 158 -47 220 -19
54 -192 410 -238 489 -16 28 -40 78 -52 112 -13 35 -42 95 -64 134 -40 69 -41
73 -24 91 11 12 17 34 16 60 -1 35 -7 47 -38 75 -33 29 -44 33 -83 31 l-45 -3
-59 85 c-88 129 -142 180 -244 232 -88 46 -310 128 -344 128 -27 0 -151 65
-190 100 -40 36 -325 188 -415 221 -33 12 -71 32 -85 45 -14 12 -39 29 -55 37
-28 14 -197 63 -249 73 -52 9 -177 44 -257 72 -47 17 -101 33 -120 36 -19 3
-45 8 -59 11 -14 3 -36 7 -50 10 -14 3 -41 8 -60 11 -19 4 -43 11 -52 15 -58
30 -432 46 -538 22z m350 -222 c52 -7 109 -17 125 -23 30 -10 60 -15 126 -22
20 -2 53 -13 75 -24 46 -24 161 -58 189 -55 11 1 67 -13 125 -32 58 -18 135
-38 171 -45 53 -9 79 -21 125 -56 33 -24 82 -51 109 -59 28 -8 64 -24 80 -35
17 -11 37 -24 45 -29 31 -19 147 -69 195 -85 28 -9 66 -26 87 -39 40 -24 148
-124 148 -136 0 -4 11 -14 25 -21 14 -7 45 -34 68 -59 24 -25 66 -58 94 -73
27 -14 65 -46 84 -70 18 -23 24 -35 14 -26 -61 52 -184 70 -264 39 -37 -15
-64 -20 -87 -15 -27 5 -42 1 -72 -19 -49 -34 -104 -44 -121 -23 -8 9 -21 16
-30 16 -33 1 -116 54 -119 78 -2 14 -15 28 -30 35 -15 7 -34 19 -42 28 -29 31
-104 65 -140 64 -79 -3 -185 -19 -208 -31 -26 -13 -27 -13 -132 31 -69 29
-124 34 -162 14 -65 -33 -200 -145 -217 -178 -24 -48 -61 -156 -61 -179 0 -23
-24 -44 -67 -61 -18 -7 -39 -23 -47 -36 -9 -13 -26 -27 -38 -31 -25 -7 -156
-102 -177 -128 -7 -9 -19 -16 -25 -16 -6 0 -27 -10 -46 -22 -40 -25 -46 -27
-114 -33 -27 -3 -58 -13 -69 -22 -14 -14 -34 -17 -82 -16 -54 2 -80 10 -179
58 -64 31 -128 68 -141 81 -20 20 -34 25 -68 23 -25 -1 -61 7 -87 19 -33 14
-62 19 -110 17 -135 -6 -181 -13 -291 -48 -63 -19 -136 -38 -164 -42 -27 -3
-59 -8 -71 -9 -11 -2 -26 -6 -32 -10 -14 -9 -81 25 -124 63 -18 15 -53 39 -77
52 -24 13 -55 30 -70 38 -46 25 -158 26 -226 1 -33 -11 -95 -23 -138 -26 -51
-3 -90 -11 -115 -24 -20 -11 -42 -20 -47 -20 -6 0 -32 -13 -58 -30 -26 -16
-55 -30 -65 -30 -9 0 -38 -21 -63 -47 -25 -27 -63 -61 -85 -77 -42 -31 -154
-146 -154 -158 0 -4 -6 -8 -12 -8 -7 0 -20 -11 -28 -24 -48 -75 -99 -147 -141
-200 -76 -93 -118 -183 -115 -244 2 -28 12 -65 23 -84 11 -18 26 -55 34 -81 8
-27 22 -57 31 -67 10 -11 18 -27 18 -37 0 -10 8 -30 18 -45 10 -15 17 -42 16
-60 -3 -44 12 -68 41 -68 15 0 25 -6 25 -15 0 -8 21 -36 48 -63 45 -47 49 -49
118 -55 67 -7 73 -5 140 30 83 44 189 150 206 205 6 21 19 45 30 54 10 10 18
29 18 44 0 15 6 33 14 39 7 6 21 33 31 59 25 66 95 157 117 150 10 -4 16 -118
18 -353 2 -151 25 -222 91 -283 30 -27 49 -54 49 -67 0 -11 8 -30 18 -41 9
-10 25 -32 35 -47 18 -28 21 -28 85 -24 85 5 122 14 145 34 17 16 40 83 53
153 3 19 7 40 9 45 1 6 6 29 10 53 4 23 12 42 16 42 5 0 7 -11 3 -25 -5 -19 1
-36 21 -65 23 -33 28 -52 31 -120 6 -120 33 -163 104 -162 63 1 81 10 145 73
33 33 70 69 82 81 23 23 50 26 123 14 82 -13 81 -12 74 -64 -8 -63 -15 -133
-15 -154 0 -28 93 -218 106 -218 15 0 31 -30 34 -65 0 -8 14 -21 30 -30 16 -8
50 -45 74 -83 49 -73 88 -101 172 -122 28 -6 66 -18 86 -25 19 -7 62 -18 95
-24 32 -6 119 -25 192 -43 l134 -32 -7 -30 c-4 -17 -8 -38 -10 -46 -1 -8 3
-22 10 -30 24 -29 23 -47 -5 -94 -34 -58 -128 -166 -145 -166 -7 0 -31 -18
-53 -40 -55 -56 -109 -73 -199 -65 -40 4 -73 11 -73 16 0 18 -49 59 -69 59
-22 0 -95 50 -147 100 -17 16 -52 38 -77 49 -27 12 -77 49 -115 86 -37 35 -72
65 -78 65 -7 0 -14 9 -17 19 -2 11 -22 30 -43 44 -22 13 -55 43 -74 66 -19 23
-76 78 -126 121 -50 44 -97 91 -104 105 -7 14 -21 25 -30 25 -9 0 -25 10 -36
21 -25 29 -143 104 -207 133 -29 13 -64 35 -79 49 -15 14 -54 42 -86 62 -32
20 -69 49 -81 65 -13 19 -31 30 -45 30 -14 0 -26 5 -28 10 -5 15 -176 42 -220
34 -20 -3 -67 -7 -105 -8 -37 -2 -104 -9 -148 -16 -44 -8 -101 -13 -126 -12
-35 2 -50 -2 -64 -18 -10 -11 -36 -25 -58 -31 -37 -10 -42 -9 -57 11 -21 28
-125 63 -150 50 -9 -5 -32 -26 -49 -46 -29 -32 -32 -42 -30 -91 2 -46 -1 -59
-17 -72 -40 -32 -59 -74 -61 -131 -1 -30 -5 -82 -9 -115 -12 -105 -11 -298 2
-342 7 -22 10 -43 7 -46 -2 -3 0 -14 5 -24 6 -10 13 -46 16 -81 3 -34 13 -73
21 -85 8 -13 13 -26 10 -29 -3 -3 -6 -32 -6 -66 -1 -46 4 -68 19 -89 11 -16
25 -46 31 -68 14 -54 45 -112 78 -149 15 -17 41 -49 57 -71 16 -22 32 -42 35
-45 4 -3 24 -29 45 -57 21 -29 41 -53 46 -53 4 0 13 -13 19 -30 5 -16 15 -30
20 -30 32 0 137 -148 118 -166 -3 -4 0 -19 8 -35 8 -15 16 -36 18 -46 2 -10
14 -38 27 -63 20 -39 23 -62 27 -180 2 -74 5 -166 8 -205 2 -38 6 -164 7 -280
2 -138 8 -220 16 -238 6 -16 12 -41 12 -56 0 -16 7 -48 15 -71 8 -24 14 -44
13 -45 -12 -10 -127 45 -236 114 -104 65 -159 108 -257 204 -69 66 -125 126
-125 131 0 6 -31 47 -69 91 -61 72 -141 205 -141 237 0 19 -100 229 -114 240
-5 3 -10 28 -11 55 -1 33 -11 65 -30 97 -16 28 -29 64 -30 89 -1 23 -7 58 -13
77 -35 108 -43 143 -41 196 1 33 -4 71 -10 87 -6 15 -9 67 -7 117 2 50 -1 93
-5 96 -5 3 -9 20 -9 38 0 18 -4 46 -10 62 -13 36 -25 279 -22 404 1 25 2 56 2
70 1 84 8 242 13 285 3 28 9 102 12 165 5 88 13 129 31 172 32 75 101 289 110
336 4 20 12 46 17 57 6 11 11 23 12 27 0 3 3 10 7 14 5 4 8 14 8 23 0 8 9 24
20 36 11 11 21 30 23 41 1 12 11 33 20 48 10 14 20 40 24 56 3 17 10 33 14 36
5 3 9 13 9 22 0 14 45 119 104 242 7 14 21 52 31 85 11 33 24 67 31 75 6 8 24
38 39 65 15 28 56 85 92 128 35 43 66 87 68 99 5 24 23 52 62 94 15 17 49 59
76 93 26 34 59 66 72 71 14 5 30 21 35 35 5 14 14 25 20 25 6 0 18 13 28 28
31 52 87 114 109 123 12 4 34 26 48 48 14 22 36 48 50 57 14 9 25 21 25 26 0
11 106 114 133 129 9 5 17 17 17 27 1 23 21 48 45 55 11 4 29 20 40 37 11 17
28 33 39 36 10 3 46 29 80 58 90 75 125 100 183 129 28 15 54 31 58 37 3 5 20
16 38 25 18 8 56 35 86 59 30 25 66 48 80 51 14 4 33 13 41 20 21 19 148 72
212 89 29 7 77 25 106 39 28 14 61 23 71 20 11 -3 34 2 52 11 17 9 68 23 113
31 45 9 113 27 151 41 71 26 201 54 265 58 19 1 53 7 75 13 22 6 47 11 55 11
37 -1 164 13 172 18 13 8 187 31 213 28 11 -1 63 -7 115 -13z m2093 -1816 c-3
-9 -8 -14 -10 -11 -3 3 -2 9 2 15 9 16 15 13 8 -4z m-42 -48 c-10 -9 -11 -8
-5 6 3 10 9 15 12 12 3 -3 0 -11 -7 -18z m-46 -57 c-3 -5 -12 -10 -18 -10 -7
0 -6 4 3 10 19 12 23 12 15 0z m53 -150 c-7 -10 -14 -17 -17 -15 -4 4 18 35
25 35 2 0 -1 -9 -8 -20z m12 -364 c0 -2 -8 -10 -17 -17 -16 -13 -17 -12 -4 4
13 16 21 21 21 13z m-2336 -412 c3 -8 2 -12 -4 -9 -6 3 -10 10 -10 16 0 14 7
11 14 -7z m2686 -108 c0 -2 -7 -7 -16 -10 -8 -3 -12 -2 -9 4 6 10 25 14 25 6z
m-923 -160 c34 -2 74 -6 90 -10 34 -8 117 -48 121 -58 2 -5 11 -8 20 -8 10 0
33 -10 52 -22 87 -54 168 -86 235 -95 22 -2 72 -13 110 -23 39 -10 96 -21 128
-24 41 -4 85 -18 150 -50 51 -25 114 -54 140 -65 26 -11 47 -27 47 -35 0 -8
20 -29 45 -47 25 -18 45 -38 45 -46 0 -13 113 -76 127 -71 14 5 13 -126 -2
-172 -7 -25 -16 -78 -19 -118 -3 -41 -9 -79 -13 -85 -6 -10 -8 -32 -17 -192
-2 -33 -13 -89 -25 -125 -29 -87 -40 -135 -46 -217 -6 -70 -21 -131 -49 -195
-9 -21 -13 -38 -9 -38 5 0 1 -6 -8 -13 -15 -11 -54 -118 -99 -275 -22 -78
-103 -204 -150 -237 -14 -9 -33 -34 -43 -54 -24 -51 -194 -225 -244 -251 -24
-12 -43 -26 -43 -31 0 -5 -5 -9 -12 -9 -6 0 -28 -17 -47 -38 -20 -21 -49 -46
-66 -57 -16 -10 -45 -32 -63 -49 -18 -17 -59 -47 -91 -66 -33 -19 -93 -56
-133 -81 -41 -25 -90 -52 -111 -58 -20 -7 -39 -20 -42 -29 -6 -18 -31 -32
-150 -85 -38 -17 -81 -38 -95 -47 -14 -9 -40 -17 -59 -19 -19 -2 -44 -9 -55
-16 -12 -8 -43 -17 -71 -21 -27 -3 -58 -10 -67 -15 -10 -6 -18 -8 -18 -5 0 8
-85 -16 -100 -29 -12 -11 -90 -35 -162 -50 -9 -2 -27 -10 -40 -18 -22 -14
-119 -33 -145 -29 -6 2 -38 -6 -71 -17 -32 -11 -95 -22 -140 -25 -45 -3 -91
-8 -104 -11 -59 -13 -90 -17 -183 -21 -60 -2 -118 -11 -145 -21 -35 -14 -74
-17 -175 -16 -71 1 -152 3 -180 6 -27 3 -64 6 -81 6 l-32 1 2 104 c1 81 5 108
17 122 9 11 20 35 24 54 9 41 42 110 53 110 4 0 16 15 26 32 31 53 79 93 157
131 130 62 207 97 215 97 5 0 59 16 119 36 61 20 121 38 135 40 42 8 133 35
165 49 55 25 74 27 91 11 39 -39 126 -5 139 55 6 27 21 37 152 100 79 39 151
72 158 73 15 2 62 34 79 54 6 8 26 28 44 45 18 18 47 47 65 66 18 19 66 69
109 112 42 43 86 95 99 116 13 21 26 40 30 43 4 3 13 21 21 40 22 52 0 108
-60 156 -71 56 -71 57 -12 35 30 -12 61 -21 69 -21 24 0 120 79 127 105 3 13
20 35 38 49 18 13 56 48 86 76 30 29 66 59 80 68 14 9 36 26 50 39 65 60 118
103 128 103 19 0 86 43 123 80 49 48 77 99 72 132 -2 18 5 41 21 65 49 76 66
224 37 338 -25 104 -162 179 -306 168 -33 -2 -73 -8 -90 -13 -32 -10 -82 -5
-100 10 -6 5 -56 11 -112 14 -90 3 -105 7 -156 36 -58 32 -97 75 -97 104 0 9
6 27 14 39 8 12 22 60 32 106 16 83 58 172 92 199 11 9 30 11 57 7 22 -4 68
-8 102 -9z m-477 -1110 c0 -2 -7 -7 -16 -10 -8 -3 -12 -2 -9 4 6 10 25 14 25
6z m-809 -370 c23 -8 49 -13 58 -11 9 1 63 6 121 10 58 4 122 9 143 11 47 5
74 -8 72 -37 -3 -36 21 -93 48 -113 60 -45 166 -26 206 37 12 18 21 27 21 20
0 -15 60 -50 117 -66 l48 -14 -49 -7 c-62 -10 -177 -47 -243 -80 -29 -14 -56
-26 -60 -26 -3 0 -14 -7 -22 -14 -19 -17 -72 -30 -116 -29 -235 7 -260 10
-320 38 -62 29 -115 70 -115 90 0 6 -25 35 -56 65 -50 49 -94 114 -94 138 0
14 194 4 241 -12z m-878 -1041 c-3 -9 -8 -14 -10 -11 -3 3 -2 9 2 15 9 16 15
13 8 -4z"/>
<path d="M6282 3197 c-12 -13 -20 -25 -18 -28 3 -2 6 -24 9 -47 5 -51 20 -69
63 -76 23 -4 39 0 58 15 14 11 24 25 20 30 -3 5 -6 27 -6 50 -1 73 -78 107
-126 56z"/>
</g>
</svg>
